# xmcd CD database file
#
# Track frame offsets:
#	150
#	23735
#	44416
#	82270
#	100740
#	119443
#	138637
#	152695
#	182200
#	198563
#
# Disc length: 2781 seconds
#
# Revision: 0
# Processed by: cddbd v1.5.1PL0 Copyright (c) Steve Scherf et al.
# Submitted via: CDex 1.51
#
DISCID=8b0adb0a
DTITLE=Morpholinos - For Background Use Only
DYEAR=2003
DGENRE=Jazz
TTITLE0=Rio
TTITLE1=Rock With You
TTITLE2=Synchronicity 2
TTITLE3=King Harvest (Has Surely Come)
TTITLE4=Leave It
TTITLE5=Garage-flavored Tune
TTITLE6=Billy Don't Lose That Prayer
TTITLE7=Carry on Wayward Son
TTITLE8=Borderline
TTITLE9=Sidecar
EXTD=YEAR: 2003
EXTT0=
EXTT1=
EXTT2=
EXTT3=
EXTT4=
EXTT5=
EXTT6=
EXTT7=
EXTT8=
EXTT9=
PLAYORDER=
